<mxfile host="app.diagrams.net" modified="2023-10-28T12:46:54.412Z" agent="Mozilla/5.0 (Windows NT 10.0; Win64; x64; rv:109.0) Gecko/20100101 Firefox/118.0" etag="4TTYiWoH6p3EhWiSfM7-" version="22.0.8" type="device">
  <diagram name="Page-1" id="W7kPb0WJp4yNrCLrIf49">
    <mxGraphModel dx="1400" dy="744" grid="1" gridSize="10" guides="1" tooltips="1" connect="1" arrows="1" fold="1" page="1" pageScale="1" pageWidth="850" pageHeight="1100" math="0" shadow="0">
      <root>
        <mxCell id="0" />
        <mxCell id="1" parent="0" />
        <mxCell id="bRD48xbqhAGTRWCDHvDw-2" value="" style="rounded=0;whiteSpace=wrap;html=1;fillColor=none;strokeWidth=3;" vertex="1" parent="1">
          <mxGeometry x="340" y="120" width="430" height="760" as="geometry" />
        </mxCell>
        <mxCell id="bRD48xbqhAGTRWCDHvDw-3" value="Login" style="ellipse;whiteSpace=wrap;html=1;fontSize=12;" vertex="1" parent="1">
          <mxGeometry x="370" y="140" width="80" height="60" as="geometry" />
        </mxCell>
        <mxCell id="bRD48xbqhAGTRWCDHvDw-13" value="Register" style="ellipse;whiteSpace=wrap;html=1;fontSize=12;" vertex="1" parent="1">
          <mxGeometry x="530" y="140" width="80" height="60" as="geometry" />
        </mxCell>
        <mxCell id="bRD48xbqhAGTRWCDHvDw-14" value="See Search Results" style="ellipse;whiteSpace=wrap;html=1;fontSize=12;" vertex="1" parent="1">
          <mxGeometry x="360" y="330" width="100" height="80" as="geometry" />
        </mxCell>
        <mxCell id="bRD48xbqhAGTRWCDHvDw-15" value="Write Search Queries" style="ellipse;whiteSpace=wrap;html=1;fontSize=12;" vertex="1" parent="1">
          <mxGeometry x="380" y="230" width="110" height="70" as="geometry" />
        </mxCell>
        <mxCell id="bRD48xbqhAGTRWCDHvDw-17" value="Filter Results" style="ellipse;whiteSpace=wrap;html=1;fontSize=12;" vertex="1" parent="1">
          <mxGeometry x="370" y="440" width="80" height="60" as="geometry" />
        </mxCell>
        <mxCell id="bRD48xbqhAGTRWCDHvDw-18" value="Verses" style="ellipse;whiteSpace=wrap;html=1;fontSize=12;" vertex="1" parent="1">
          <mxGeometry x="490" y="440" width="80" height="60" as="geometry" />
        </mxCell>
        <mxCell id="bRD48xbqhAGTRWCDHvDw-19" value="All" style="ellipse;whiteSpace=wrap;html=1;fontSize=12;" vertex="1" parent="1">
          <mxGeometry x="490" y="360" width="80" height="60" as="geometry" />
        </mxCell>
        <mxCell id="bRD48xbqhAGTRWCDHvDw-20" value="Hadiths" style="ellipse;whiteSpace=wrap;html=1;fontSize=12;" vertex="1" parent="1">
          <mxGeometry x="490" y="520" width="80" height="60" as="geometry" />
        </mxCell>
        <mxCell id="bRD48xbqhAGTRWCDHvDw-21" value="Bookmark" style="ellipse;whiteSpace=wrap;html=1;fontSize=12;" vertex="1" parent="1">
          <mxGeometry x="470" y="620" width="80" height="60" as="geometry" />
        </mxCell>
        <mxCell id="bRD48xbqhAGTRWCDHvDw-22" value="Share" style="ellipse;whiteSpace=wrap;html=1;fontSize=12;" vertex="1" parent="1">
          <mxGeometry x="370" y="620" width="80" height="60" as="geometry" />
        </mxCell>
        <mxCell id="bRD48xbqhAGTRWCDHvDw-23" value="View Duas" style="ellipse;whiteSpace=wrap;html=1;fontSize=12;" vertex="1" parent="1">
          <mxGeometry x="370" y="530" width="80" height="60" as="geometry" />
        </mxCell>
        <mxCell id="bRD48xbqhAGTRWCDHvDw-24" value="See Search History" style="ellipse;whiteSpace=wrap;html=1;fontSize=12;" vertex="1" parent="1">
          <mxGeometry x="540" y="230" width="100" height="70" as="geometry" />
        </mxCell>
        <mxCell id="bRD48xbqhAGTRWCDHvDw-25" value="Report" style="ellipse;whiteSpace=wrap;html=1;fontSize=12;" vertex="1" parent="1">
          <mxGeometry x="570" y="620" width="80" height="60" as="geometry" />
        </mxCell>
        <mxCell id="bRD48xbqhAGTRWCDHvDw-26" value="Update Profile" style="ellipse;whiteSpace=wrap;html=1;fontSize=12;" vertex="1" parent="1">
          <mxGeometry x="365" y="750" width="90" height="70" as="geometry" />
        </mxCell>
        <mxCell id="bRD48xbqhAGTRWCDHvDw-28" value="Personalize Settings" style="ellipse;whiteSpace=wrap;html=1;fontSize=12;" vertex="1" parent="1">
          <mxGeometry x="480" y="790" width="90" height="70" as="geometry" />
        </mxCell>
        <mxCell id="bRD48xbqhAGTRWCDHvDw-29" value="Delete Bookmarks" style="ellipse;whiteSpace=wrap;html=1;fontSize=12;" vertex="1" parent="1">
          <mxGeometry x="480" y="700" width="90" height="70" as="geometry" />
        </mxCell>
      </root>
    </mxGraphModel>
  </diagram>
</mxfile>
